<svg width="35" height="35" viewBox="0 0 35 35" fill="none" xmlns="http://www.w3.org/2000/svg">
<g clip-path="url(#clip0_2_20)">
<path d="M29.8744 5.12559C26.569 1.82036 22.1744 0 17.5 0C12.8256 0 8.43096 1.82036 5.12559 5.12559C1.82036 8.43096 0 12.8256 0 17.5C0 22.1744 1.82036 26.569 5.12559 29.8744C8.43096 33.1796 12.8256 35 17.5 35C19.862 35 22.154 34.5371 24.3122 33.6243L23.4687 31.6304C21.5789 32.4298 19.5707 32.835 17.5 32.835C9.04422 32.835 2.16495 25.9558 2.16495 17.5C2.16495 9.04422 9.04422 2.16495 17.5 2.16495C25.9558 2.16495 32.835 9.04422 32.835 17.5C32.835 21.2037 30.5594 22.8906 28.445 22.8906C26.3306 22.8906 24.055 21.2038 24.055 17.5C24.055 13.8855 21.1145 10.945 17.5 10.945C13.8855 10.945 10.945 13.8856 10.945 17.5C10.945 21.1144 13.8855 24.055 17.5 24.055C19.6401 24.055 21.5437 23.024 22.7408 21.4328C23.0473 22.0518 23.4331 22.6117 23.8983 23.1008C25.0972 24.3614 26.7119 25.0555 28.445 25.0555C30.1782 25.0555 31.7928 24.3613 32.9917 23.1008C34.3056 21.7195 35 19.7827 35 17.5C35 12.8256 33.1796 8.43096 29.8744 5.12559ZM17.5 21.89C15.0794 21.89 13.11 19.9206 13.11 17.5C13.11 15.0794 15.0794 13.11 17.5 13.11C19.9206 13.11 21.89 15.0794 21.89 17.5C21.89 19.9206 19.9206 21.89 17.5 21.89Z" fill="black"/>
</g>
<defs>
<clipPath id="clip0_2_20">
<rect width="35" height="35" fill="white"/>
</clipPath>
</defs>
</svg>
