<svg width="35" height="35" viewBox="0 0 35 35" fill="none" xmlns="http://www.w3.org/2000/svg">
<path d="M0 3.64583V15.3125H35V3.64583H0ZM33.5417 13.8542H1.45833V5.10417H33.5417V13.8542Z" fill="black"/>
<path d="M9.45318 8.65245L8.72401 7.38922L7.29167 8.21616V6.5625H5.83333V8.21601L4.40135 7.38922L3.67218 8.65245L5.1041 9.47917L3.67218 10.3059L4.40135 11.5691L5.83333 10.7423V12.3958H7.29167V10.7422L8.72401 11.5691L9.45318 10.3059L8.02126 9.47917L9.45318 8.65245Z" fill="black"/>
<path d="M16.7449 8.65245L16.0157 7.38922L14.5834 8.21616V6.5625H13.125V8.21601L11.693 7.38922L10.9639 8.65245L12.3958 9.47917L10.9639 10.3059L11.693 11.5691L13.125 10.7423V12.3958H14.5834V10.7422L16.0157 11.5691L16.7449 10.3059L15.3129 9.47917L16.7449 8.65245Z" fill="black"/>
<path d="M24.0365 8.65245L23.3073 7.38922L21.875 8.21616V6.5625H20.4166V8.21601L18.9847 7.38922L18.2555 8.65245L19.6874 9.47917L18.2555 10.3059L18.9847 11.5691L20.4166 10.7423V12.3958H21.875V10.7422L23.3073 11.5691L24.0365 10.3059L22.6046 9.47917L24.0365 8.65245Z" fill="black"/>
<path d="M31.3282 8.65245L30.599 7.38922L29.1667 8.21616V6.5625H27.7083V8.21601L26.2763 7.38922L25.5472 8.65245L26.9791 9.47917L25.5472 10.3059L26.2763 11.5691L27.7083 10.7423V12.3958H29.1667V10.7422L30.599 11.5691L31.3282 10.3059L29.8963 9.47917L31.3282 8.65245Z" fill="black"/>
<path d="M28.7394 22.6042H14.9296C14.0258 20.0595 11.6006 18.2292 8.75 18.2292C5.13158 18.2292 2.1875 21.1729 2.1875 24.7917C2.1875 28.4104 5.13158 31.3542 8.75 31.3542C11.3201 31.3542 13.5437 29.8656 14.6201 27.7083H20.1147L22.2396 29.8332L24.7917 27.2811L25.9481 28.4375H28.7394L31.6561 25.5208L28.7394 22.6042ZM8.75 29.8958C5.93552 29.8958 3.64583 27.6058 3.64583 24.7917C3.64583 21.9775 5.93552 19.6875 8.75 19.6875C11.5645 19.6875 13.8542 21.9775 13.8542 24.7917C13.8542 27.6058 11.5645 29.8958 8.75 29.8958ZM28.1356 26.9792H26.5519L24.7917 25.2189L22.2396 27.771L20.7186 26.25H15.1435C15.2507 25.7802 15.3125 25.2935 15.3125 24.7917C15.3125 24.545 15.2962 24.3022 15.2695 24.0625H28.1356L29.5939 25.5208L28.1356 26.9792Z" fill="black"/>
<path d="M6.5625 22.6042C5.35624 22.6042 4.375 23.5854 4.375 24.7917C4.375 25.9979 5.35624 26.9792 6.5625 26.9792C7.76876 26.9792 8.75 25.9979 8.75 24.7917C8.75 23.5854 7.76876 22.6042 6.5625 22.6042ZM6.5625 25.5208C6.16053 25.5208 5.83333 25.194 5.83333 24.7917C5.83333 24.3893 6.16053 24.0625 6.5625 24.0625C6.96447 24.0625 7.29167 24.3893 7.29167 24.7917C7.29167 25.194 6.96447 25.5208 6.5625 25.5208Z" fill="black"/>
</svg>
